<svg width="0" height="0" class="hidden">
  <symbol xmlns="http://www.w3.org/2000/svg" viewBox="0 0 40 40" id="alarm">
    <path d="M20.8945 6.51534C20.8041 6.35867 20.6741 6.22856 20.5174 6.13809C20.3608 6.04763 20.1831 6 20.0022 6C19.8214 6 19.6437 6.04763 19.487 6.13809C19.3304 6.22856 19.2004 6.35867 19.11 6.51534L4.1401 32.428C4.04837 32.5842 4 32.762 4 32.9431C4 33.1242 4.04837 33.302 4.1401 33.4581C4.23147 33.614 4.36204 33.7432 4.51884 33.8329C4.67564 33.9226 4.8532 33.9697 5.03385 33.9695H34.9691C35.1559 33.9694 35.3392 33.9185 35.4993 33.8224C35.6595 33.7262 35.7905 33.5884 35.8785 33.4236C35.9664 33.2588 36.008 33.0732 35.9987 32.8867C35.9895 32.7001 35.9297 32.5196 35.8258 32.3643L20.8945 6.51534ZM6.81393 31.9182L20.0022 9.08986L33.1905 31.9182H6.81393Z" ></path>
    <path d="M18.958 16.159V24.0382C18.958 24.5999 19.4204 25.0624 19.9851 25.0624C20.2568 25.0616 20.5172 24.9535 20.7095 24.7617C20.9019 24.5699 21.0107 24.3099 21.0123 24.0382V16.159C21.0119 15.8864 20.9037 15.6251 20.7112 15.4321C20.5187 15.2391 20.2577 15.1301 19.9851 15.1289C19.7127 15.1305 19.4519 15.2396 19.2595 15.4325C19.0672 15.6255 18.9588 15.8866 18.958 16.159ZM19.9866 26.4363C19.7145 26.4371 19.4537 26.5456 19.2612 26.738C19.0687 26.9305 18.9603 27.1913 18.9595 27.4635V28.1497C18.9595 28.7115 19.4219 29.1739 19.9866 29.1739C20.2583 29.1731 20.5186 29.0651 20.711 28.8732C20.9034 28.6814 21.0122 28.4214 21.0138 28.1497V27.4635C21.013 27.1913 20.9045 26.9305 20.7121 26.738C20.5196 26.5456 20.2588 26.4371 19.9866 26.4363Z" ></path>
  </symbol>
</svg>