<svg width="0" height="0" class="hidden">
    <symbol xmlns="http://www.w3.org/2000/svg" viewBox="0 0 32 32" id="commission">
        <path fill-rule="evenodd" clip-rule="evenodd"
              d="M7.83044 15.1518C6.53315 15.5012 5.60102 16.6983 5.60402 18.0112C5.6076 19.6057 6.79209 20.8796 8.38194 20.999C10.1268 21.13 11.6671 19.5875 11.5378 17.8386C11.4204 16.2508 10.1319 15.0545 8.55434 15.0683C8.31917 15.0703 7.99343 15.1079 7.83044 15.1518ZM22.5877 15.1704C21.2232 15.5624 20.294 16.8934 20.4226 18.2712C20.6286 20.476 23.0153 21.7027 24.9235 20.5845C25.3022 20.3625 25.7922 19.8475 26.0058 19.4468C27.0672 17.4553 25.6096 15.0473 23.3556 15.0686C23.1204 15.0708 22.7748 15.1166 22.5877 15.1704ZM9.41264 16.1545C10.097 16.4681 10.5617 17.1155 10.6304 17.8507C10.6982 18.5773 10.3345 19.3396 9.72857 19.7406C8.67371 20.4388 7.28189 20.0643 6.72494 18.9322C6.55346 18.5838 6.53905 18.5119 6.54098 18.0145C6.54285 17.5366 6.56139 17.4389 6.70271 17.1628C6.90829 16.7612 7.25847 16.3974 7.61636 16.2139C8.04146 15.9958 8.14303 15.9736 8.63714 15.9911C8.98131 16.0031 9.16851 16.0426 9.41264 16.1545ZM24.289 16.1843C24.7217 16.4067 25.0623 16.7583 25.2643 17.1911C25.4014 17.4846 25.4232 17.6016 25.4232 18.0418C25.4232 18.4748 25.4005 18.6005 25.2738 18.8709C24.9957 19.4638 24.5198 19.8677 23.907 20.0309C23.5217 20.1335 23.2854 20.1319 22.869 20.0244C21.3812 19.6398 20.8249 17.795 21.8534 16.6567C22.2848 16.1791 22.816 15.9638 23.4951 15.9911C23.8684 16.0061 24.009 16.0403 24.289 16.1843ZM15.0737 17.065C14.0897 17.4017 13.4028 18.1191 13.1173 19.1082C13 19.5146 12.995 20.2851 13.1073 20.6633C13.417 21.706 14.2138 22.4946 15.2453 22.7791C15.5681 22.8682 16.3865 22.8675 16.7168 22.7779C17.7385 22.5008 18.5463 21.7018 18.8547 20.6633C18.967 20.2851 18.9621 19.5146 18.8448 19.1082C18.551 18.0906 17.7896 17.3233 16.7788 17.0264C16.3168 16.8907 15.5311 16.9085 15.0737 17.065ZM16.9349 18.0686C18.2096 18.7505 18.4236 20.4436 17.3583 21.4172C16.7901 21.9366 15.955 22.0896 15.2155 21.8099C14.744 21.6315 14.2333 21.1206 14.0582 20.652C13.6843 19.6515 14.1065 18.5351 15.0387 18.0589C15.4129 17.8677 15.5268 17.8459 16.0661 17.8617C16.5222 17.8752 16.6146 17.8972 16.9349 18.0686ZM6.19862 21.1664C5.70287 21.2733 4.87122 21.6738 4.49733 21.9855C4.05988 22.3502 3.69007 22.8179 3.44543 23.3158C3.04869 24.1232 3.03321 24.2297 3.00808 26.3214C2.98392 28.3311 2.99929 28.4803 3.26277 28.7934C3.26837 28.8001 3.27383 28.8066 3.27918 28.813C3.31621 28.8572 3.34806 28.8953 3.38466 28.928C3.60929 29.1286 4.01323 29.1286 6.89568 29.1285L7.10416 29.1285H10.4235V29.6636C10.4235 30.2584 10.4726 30.4414 10.6965 30.6808C10.7078 30.693 10.7185 30.7046 10.7287 30.7159C10.7556 30.7453 10.7797 30.7717 10.8062 30.7954C11.036 31.0004 11.4486 31.0003 15.4331 31C15.6087 31 15.7913 30.9999 15.981 30.9999C16.1708 30.9999 16.3534 31 16.529 31C20.5135 31.0003 20.9261 31.0004 21.1558 30.7954C21.1824 30.7717 21.2065 30.7453 21.2333 30.7159C21.2436 30.7046 21.2542 30.693 21.2656 30.6808C21.4895 30.4414 21.5386 30.2584 21.5386 29.6636V29.1285H24.8579L25.0664 29.1285C27.9488 29.1286 28.3528 29.1286 28.5774 28.928C28.614 28.8953 28.6459 28.8572 28.6829 28.813C28.6882 28.8066 28.6937 28.8001 28.6993 28.7934C28.9637 28.4791 28.9789 28.3317 28.9536 26.3211C28.9273 24.2303 28.9112 24.1194 28.517 23.3158C28.1243 22.5153 27.5015 21.9027 26.6708 21.4997C25.836 21.0947 25.5714 21.0636 23.1728 21.0881C21.1174 21.1092 21.1123 21.1095 20.6584 21.261C19.8873 21.5183 19.169 22.0209 18.6775 22.6471L18.4351 22.9559H15.981H13.5269L13.2846 22.6471C12.7932 22.021 12.075 21.5185 11.3037 21.2608L10.8488 21.1089L8.7222 21.0948C6.99857 21.0835 6.52034 21.097 6.19862 21.1664ZM11.1108 22.1592C11.3172 22.2388 11.6002 22.3708 11.7397 22.4524C12.0183 22.6158 12.6352 23.205 12.6352 23.3078C12.6352 23.3435 12.514 23.436 12.3658 23.5133C12.2176 23.5907 11.8774 23.8714 11.6096 24.1372C11.2049 24.539 11.0781 24.7111 10.857 25.159C10.5083 25.8653 10.4257 26.285 10.4245 27.3563L10.4235 28.2212H7.16269H3.90188V26.5587C3.90188 24.7188 3.93602 24.4162 4.21004 23.8262C4.54248 23.1103 5.01855 22.625 5.71659 22.2903C6.30053 22.0103 6.54109 21.9872 8.7222 22.0014C10.7298 22.0145 10.7364 22.0149 11.1108 22.1592ZM25.5795 22.0663C26.4061 22.2414 27.2683 22.8823 27.6421 23.5993C28.026 24.3358 28.0318 24.377 28.0318 26.3781V28.1928L24.7914 28.2074L21.5511 28.2221L21.5234 27.1867C21.4924 26.0286 21.4383 25.7821 21.0521 25.0407C20.7943 24.5458 20.0219 23.7355 19.5963 23.5133C19.4481 23.436 19.3269 23.3435 19.3269 23.3078C19.3269 23.2063 19.9423 22.6167 20.2153 22.4566C20.5132 22.2821 20.9751 22.1022 21.2834 22.0408C21.4081 22.0159 22.3396 21.9932 23.3533 21.9903C24.753 21.9863 25.2885 22.0046 25.5795 22.0663ZM18.2748 23.9412C19.0915 24.154 19.8743 24.7675 20.2563 25.4945C20.6083 26.1643 20.6312 26.3373 20.6312 28.3181V30.0926H15.981H11.3308V28.3181C11.3308 26.3373 11.3538 26.1643 11.7058 25.4945C12.0817 24.7792 12.865 24.1586 13.663 23.944C14.1203 23.821 17.8047 23.8187 18.2748 23.9412Z"></path>
        <path d="M14.6129 1H17.5161V5.83871H22.3548V8.74193H17.5161V13.5806H14.6129V8.74193H9.72857V5.83871H14.6129V1Z"></path>
    </symbol>
</svg>