<svg width="0" height="0" class="hidden">
    <symbol xmlns="http://www.w3.org/2000/svg" viewBox="0 0 32 32" id="outlined">
        <path d="M21.5 8.25C21.5 8.1125 21.3875 8 21.25 8H9.25C9.1125 8 9 8.1125 9 8.25V9.75C9 9.8875 9.1125 10 9.25 10H21.25C21.3875 10 21.5 9.8875 21.5 9.75V8.25ZM21.25 12.5H9.25C9.1125 12.5 9 12.6125 9 12.75V14.25C9 14.3875 9.1125 14.5 9.25 14.5H21.25C21.3875 14.5 21.5 14.3875 21.5 14.25V12.75C21.5 12.6125 21.3875 12.5 21.25 12.5ZM15 17H9.25C9.1125 17 9 17.1125 9 17.25V18.75C9 18.8875 9.1125 19 9.25 19H15C15.1375 19 15.25 18.8875 15.25 18.75V17.25C15.25 17.1125 15.1375 17 15 17ZM13.5 26.625H6.5V4.625H24V15.375C24 15.5125 24.1125 15.625 24.25 15.625H26C26.1375 15.625 26.25 15.5125 26.25 15.375V3.375C26.25 2.82187 25.8031 2.375 25.25 2.375H5.25C4.69687 2.375 4.25 2.82187 4.25 3.375V27.875C4.25 28.4281 4.69687 28.875 5.25 28.875H13.5C13.6375 28.875 13.75 28.7625 13.75 28.625V26.875C13.75 26.7375 13.6375 26.625 13.5 26.625ZM24.65 24.3C25.5562 23.4781 26.125 22.2906 26.125 20.9688C26.125 18.4844 24.1094 16.4688 21.625 16.4688C19.1406 16.4688 17.125 18.4844 17.125 20.9688C17.125 22.2906 17.6938 23.4781 18.6 24.3C16.8188 25.3156 15.5938 27.1969 15.5 29.3656C15.4937 29.5063 15.6094 29.625 15.75 29.625H17.2531C17.3844 29.625 17.4937 29.5219 17.5031 29.3875C17.625 27.225 19.4281 25.5 21.625 25.5C23.8219 25.5 25.625 27.225 25.7469 29.3875C25.7531 29.5188 25.8625 29.625 25.9969 29.625H27.5C27.6437 29.625 27.7563 29.5063 27.75 29.3656C27.6594 27.1938 26.4312 25.3156 24.65 24.3ZM21.625 18.4688C23.0063 18.4688 24.125 19.5875 24.125 20.9688C24.125 22.35 23.0063 23.4688 21.625 23.4688C20.2437 23.4688 19.125 22.35 19.125 20.9688C19.125 19.5875 20.2437 18.4688 21.625 18.4688Z"></path>
    </symbol>
</svg>