<svg width="0" height="0" class="hidden">
    <symbol id="xlsx" xmlns="http://www.w3.org/2000/svg" viewBox="0 0 40 40">
        <g clip-path="url(#clip0_3532_3963)">
            <path
                    fill-rule="evenodd"
                    clip-rule="evenodd"
                    d="M35 11.25V27.5H32.5V11.25H27.5C26.5054 11.25 25.5516 10.8549 24.8483 10.1517C24.1451 9.44839 23.75 8.49456 23.75 7.5V2.5H10C9.33696 2.5 8.70107 2.76339 8.23223 3.23223C7.76339 3.70107 7.5 4.33696 7.5 5V27.5H5V5C5 3.67392 5.52678 2.40215 6.46447 1.46447C7.40215 0.526784 8.67392 0 10 0L23.75 0L35 11.25ZM19.65 37.1025C19.6643 37.4964 19.7609 37.883 19.9336 38.2373C20.1062 38.5917 20.3511 38.906 20.6525 39.16C20.9775 39.43 21.3775 39.64 21.85 39.79C22.325 39.9425 22.8775 40.0175 23.5125 40.0175C24.3575 40.0175 25.0725 39.885 25.6575 39.6225C26.25 39.36 26.6975 38.9925 27.0075 38.5225C27.3228 38.0344 27.4855 37.4635 27.475 36.8825C27.475 36.3225 27.3625 35.8575 27.1375 35.4825C26.9086 35.108 26.5853 34.8002 26.2 34.59C25.7579 34.3456 25.2819 34.1687 24.7875 34.065L23.235 33.705C22.8682 33.6381 22.5217 33.4876 22.2225 33.265C22.1089 33.1768 22.0174 33.0633 21.9554 32.9335C21.8933 32.8038 21.8624 32.6613 21.865 32.5175C21.865 32.1275 22.0175 31.8075 22.325 31.5575C22.6375 31.305 23.065 31.1775 23.6075 31.1775C23.965 31.1775 24.2725 31.235 24.5325 31.3475C24.7709 31.4454 24.9813 31.6009 25.145 31.8C25.2989 31.9856 25.4022 32.2078 25.445 32.445H27.32C27.2894 31.9362 27.1171 31.446 26.8225 31.03C26.5065 30.5813 26.0744 30.2269 25.5725 30.005C24.9586 29.7357 24.2926 29.6059 23.6225 29.625C22.89 29.625 22.2425 29.75 21.68 30C21.12 30.2475 20.68 30.6 20.3625 31.0525C20.045 31.5075 19.8875 32.04 19.8875 32.65C19.8875 33.1525 19.9875 33.59 20.195 33.96C20.4 34.3325 20.6925 34.635 21.0725 34.8775C21.455 35.115 21.9025 35.295 22.4225 35.41L23.9675 35.77C24.485 35.8925 24.8675 36.0525 25.1225 36.2525C25.2475 36.3472 25.3477 36.4708 25.4143 36.6128C25.481 36.7548 25.5121 36.9108 25.505 37.0675C25.5087 37.325 25.4347 37.5777 25.2925 37.7925C25.1316 38.0121 24.91 38.1798 24.655 38.275C24.3775 38.3925 24.03 38.45 23.6225 38.45C23.33 38.45 23.0625 38.4175 22.8225 38.35C22.6006 38.289 22.3903 38.1919 22.2 38.0625C22.0336 37.9548 21.8911 37.814 21.7814 37.6488C21.6717 37.4836 21.5972 37.2977 21.5625 37.1025H19.65ZM10.335 29.83H12.5675L9.3825 34.8475L12.5175 39.8275H10.2475L8.1225 36.29H8.035L5.9025 39.8275H3.75L6.85 34.7875L3.78 29.83H6.1075L8.1875 33.425H8.2775L10.335 29.83ZM15.1425 38.1425H19.385V39.8275H13.165V29.83H15.1425V38.1425ZM34.2325 29.83H36.465L33.28 34.8475L36.415 39.8275H34.145L32.02 36.29H31.9325L29.8 39.8275H27.6475L30.7475 34.7875L27.6775 29.83H30.005L32.085 33.425H32.175L34.2325 29.83Z"
            ></path>
        </g>
        <defs>
            <clipPath id="clip0_3532_3963">
                <rect width="40" height="40" fill="white"></rect>
            </clipPath>
        </defs>
    </symbol>
</svg>